<?xml version="1.0" encoding="UTF-8"?>
<svg id="Layer_1" data-name="Layer 1" xmlns="http://www.w3.org/2000/svg" viewBox="0 0 159.35 91.16">
  <defs>
    <style>
      .cls-1 {
        fill: none;
        stroke: #000;
        stroke-linecap: round;
        stroke-miterlimit: 10;
        stroke-width: 2px;
      }

      .cls-2 {
        fill: #000;
        stroke-width: 0px;
      }
    </style>
  </defs>
  <path class="cls-2" d="M32.71,67.55h-16.55c-.63,0-.71-.24-.71-.48s.08-.4.71-.4h3.88c.71,0,.79-1.03.79-3.48V13.07c0-.32-.24-.55-.79-.55h-5.62c-7.68,0-11.01,6.41-11.01,15.13v1.58c0,.55-.16.71-.48.71s-.55-.16-.55-.71V12.2c0-.4.24-.55.71-.55h42.69c.48,0,.71.16.71.55v17.03c0,.55-.24.71-.55.71s-.48-.16-.48-.71v-1.58c0-8.71-3.33-15.13-11.01-15.13h-5.62c-.55,0-.79.24-.79.55v50.13c0,2.46.08,3.48.79,3.48h3.88c.63,0,.71.16.71.4s-.08.48-.71.48Z"/>
  <path class="cls-2" d="M158.48,12.52h-.24c-2.61,0-4.59,2.22-8.55,15.13l-12.35,40.39c-.08.32-.24.48-.71.48h-1.11c-.4,0-.55-.08-.71-.48l-15.44-46.01h-.16l-14.1,46.01c-.08.32-.24.48-.71.48h-1.11c-.4,0-.55-.08-.71-.48l-17.18-51.24c-1.19-3.64-1.74-4.28-3.09-4.28h-1.43c-.48,0-.71-.08-.71-.4,0-.4.16-.48.71-.48h16.55c.48,0,.71.08.71.4,0,.4-.16.48-.71.48h-3.41c-1.5,0-1.9.79-.79,4.28l13.46,42.29h.16l9.42-31.44c1.58-5.23,4.28-15.13-2.61-15.13h-1.98c-.48,0-.71-.08-.71-.4,0-.4.16-.48.71-.48h17.98c.48,0,.71.08.71.4,0,.4-.16.48-.71.48h-3.41c-1.5,0-1.9.79-.79,4.28l13.46,42.29h.16l9.42-31.44c1.58-5.23,4.28-15.13-2.61-15.13h-1.98c-.48,0-.71-.08-.71-.4,0-.4.16-.48.71-.48h14.57c.48,0,.71.08.71.4,0,.4-.16.48-.71.48Z"/>
  <line class="cls-1" x1="65.45" y1="11.27" x2="65.45" y2="67.27"/>
</svg>
